<svg width="166" height="167" viewBox="0 0 166 167" xmlns="http://www.w3.org/2000/svg"><title>valor</title><g fill="none" fill-rule="evenodd"><path d="M83.185 11.068c20.889 0 39.657 9.076 52.583 23.49l2.031-2.58C124.294 17.146 104.827 7.835 83.185 7.835c-21.741 0-41.286 9.397-54.799 24.35a22.461 22.461 0 0 1 1.908 2.723c12.935-14.619 31.836-23.84 52.891-23.84M49.895 143.955c-21.761-11.657-36.703-34.381-37.297-60.651a67.472 67.472 0 0 1-3.248-1.156 73.68 73.68 0 0 0 4.422 24.768C9.992 103.22 3.436 94.101 1.07 88.318c3.644 28.031 23.195 50.094 47.694 60.982-.013-2.047.382-3.761 1.131-5.345M165.304 88.318c-2.368 5.783-8.926 14.902-12.705 18.598a73.697 73.697 0 0 0 4.426-25.092l-3.246 1.24c-.605 31.289-21.56 57.592-50.181 66.221v4.873c30.75-7.801 57.387-32.633 61.706-65.84" fill="#E77D84"/><path d="M76.907 110.167c2.877.118 4.716.905 4.716 2.293 0 1.69-2.233.75-2.233 2.821 0 1.328.735 1.681.735 3.111 0 .877-.479 1.586-1.293 2.057-.373.218-1.415.916-1.645 1.099-.163.125-.695.5-1 .657-1.073.541-2.54 1.048-4.35 1.953-2.087 1.043-3.938 2.572-4.232 3.217-.294.648-.412 2.773-.998 3.242-.589.47-1.706.767-2.469.767-.765 0-1.339-.248-1.646-.468-.162.91.147 1.603 1.366 1.707.254.019.366.193.014.234-.234.031-1.851.293-2.292.41 1.086.824 3.291 1.088 5.07.869-1.663 1.082-3.851 3.117-4.203 4.084-.236.647-.249 1.662-.19 2.338-2.235.588-4.324 2.078-4.675 2.998-1.868 0-3.077-.896-3.394-2.056-.235 1.054.442 3.289.867 3.847-.672.498-1.699.457-2.248-.176.25.911 1.161 2.555 1.499 2.719.338.16 3.6.117 3.879.561.28.439.18.648.338 1.175.178.584.691 1.526.839 1.891.146.369.146 1.104.395 1.693.25.588.882 1.557.927 1.823.043.263-.558 1.791.367 2.877.926 1.088 2.63.486 3.131 1.015.499.53 1.395 4.776 3.527 4.776 1.072 0 1.409-1.264 1.953-1.264.647 0 .91 1.203 1.719 2.307.812 1.107 1.97 2.117 3.352 2.117 1.057 0 2.085-.721 2.659-1.985-.426.178-.956.342-1.455.342-1.729 0-2.983-1.832-2.983-2.883 0-.324.244-.709.81-.709 1.718 0 1.674 1.59 7.463 1.59 6.906 0 9.492-3.424 11.521-4.363 1.395-.646 4.776-.764 4.776-6.215 0-2.336-1.063-6.183-2.086-8.068-.692-1.279-1.91-2.49-2.5-2.795.607.953 2.117 2.322 2.117 3.107 0 .451-.627.508-.627.666 0 .276 1.096.159 1.096 1.547 0 1.432-1.214.981-.98 2.903-1.193-.727-2.369-1.153-2.633-.727-.266.428-.061 1.146.528 1.514.588.367 1.337.543 1.337 1.058 0 .703-.961 1.297-1.294 1.91-.307.575-.434 1.309-1.586 2.205-.701.543-1.179.733-1.513.733-.823 0-1.235-1.483-2.13-1.483-.731 0-.888.577-1.033.577-.173 0-.551-.637-.638-1.36-.276-2.285-2.528-3.185-5.143-2.832.992.823 1.391 1.516 1.391 2.176 0 1.344-1.006 2.379-1.911 2.379-.683 0-.869-.041-1.538-.363-.489-.235-.783-.254-1.018-.412-.235-.155-.333-.825-.94-1.178-.667-.379-1.191-.018-2.018-.778-.868-.796-1.461-1.853-1.461-3.39 0-1.871.539-3.754.539-4.901 0-.38-.176-1-.176-1.115 0-.222 1.01-1.779 2.16-2.644 1.721 4.738 4.101 6.568 8.758 6.568 2.705 0 4.584-1.252 4.995-3.102-.411.53-.984.719-1.16.602-.175-.117.078-.76-.215-.787-.392-.039-.225.871-1.579.871-.939 0-1.448-.426-1.448-1.057 0-.441 0-1.5-.333-1.675-.335-.176-1.005.404-1.215.285-.146-.086-.029-.799.576-1.953.511-.965.724-1.637.581-1.743-.127-.091-.745.02-1.186.305-.343.219-.599.481-.716.481-.183 0-.647-1.071-.647-2.284 0-1.168.475-1.951.814-1.951.265 0 .354.178.51.178.607 0 1.037-.947 1.037-1.832 0-.84.135-1.565.363-1.871.5-.674 2.266-1.049 4.409-2.842 1.498-1.256 2.772-2.605 3.447-3.127.671-.514 1.519-.547 1.882-.234.473.408.463.804-.127 1.636-1.472 2.079-3.218 3.67-4.674 4.155.442.158 1.167.324 1.509.324.216 0 .491-.02.607-.049.119-.031.449-.402.656-.609.735-.725 1.069.15 4.351-3.006 2.231-2.147 3.204-3.938 3.204-5.133 0-1.041-.618-1.088-.618-1.9 0-2.143-.827-4.758-1.929-6.336-1.03-1.467-3.191-3.129-3.512-3.467-.325-.338-.507-.842-1.764-1.5-.706-.367-1.738-.158-2.294-.248-.879-.149-3.642-.721-6.611-.721s-5.467.44-6.231.822M82.476 73.642c-.087.406-1.146 1.598-1.918 1.703l2.624 12.305 2.625-12.305c-.774-.105-1.831-1.297-1.92-1.703h-1.411zm77.991-36.131c.073.457.353.887 1.292.981.781.078 2.409-.293 3.055.549-.467-.026-1.241.003-1.86.334-.604.316-1.397.8-2.059.933.207.676 2.162.426 1.471 1.867.971.283 1.527.948 1.527 1.897 0 1.429-1.168 2.804-2.542 2.804-.103.969-.852 1.5-.94 1.811-.088.307.379 1.189-.235 2.039-.318.441-2.435.502-2.787.543-.352.035-2.176.311-2.214.445-.056.203.65 1.121 1.273 1.51.315.197 1.235.322 1.607.451.745.256 1.92 1.764 2.9 1.764 1.536 0 3.919-1.516 4.173-2.664-.08 1.273-.816 3.146-1.371 3.937-.51.725-1.589 1.217-1.919 1.627-.337.412-.258.754-.49.979-.276.264-1.293.451-1.803.98-.577.594-.655 1.325-.569 1.459.185.293 1.458.598 2.547.598.724 0 1.431-.225 2.496-.98-.37.533-1.506 1.939-2.006 2.126-.499.186-1.27.069-1.608.168-.528.157-.851.911-2.3.911-3.088 0-3.478-.598-6.613-.598-6.522 0-7.152.578-7.152 2.037 0 .811.541 1.725 3.192 1.725 1.815 0 1.981-.323 2.508-.461.531-.137 1.049-.069 1.373-.233.324-.166 1.566-.943 1.86-1.129.294-.185.616-.23.744-.117.159.139.171.481 0 .725-.233.344-1.035 1.242-1.194 1.449-.273.365-.185.674-.567 1.129-.492.578-1.646.916-1.765 1.283-.097.303.296 1.619.11 2.006-.211.439-.931.896-1.775.961-.83.066-1.525.101-1.726.217-.432.246-.096 3.017-.545 3.857-.043-1.002-.386-1.496-1.421-1.496-1.07 0-2.772 1.695-4.252 1.695-.896 0-1.411-.92-2.449-1.529-.717-.422-2.756-.951-4.781-.951-3.424 0-4.253.404-4.982.603-.866.235-1.358.09-2.218.705-.668.477-1.104 1.397-1.104 2.338 0 1.162.716 2.102 1.513 2.102 1.015 0 2.043-1.311 3.353-1.311.66 0 1.323.19 1.835.485.517.297 1.443 1.029 1.779 1.146.337.121 2.572.412 3.057 1.647-1.83-.649-3.568-.752-5.467-.014-1.513.584-2.306 1.75-3.057 2.277-.587.413-1.13.307-1.734.998-.601.69-.421 1.565-1.337 2.426-.905.852-1.936 1.248-3.571 1.248-1.633 0-3.614-.101-4.746-.205.059.324.119.828-.059 1.102-.307.47-1.807.146-1.807 1.207 0 .834.427 1.469 1.043 1.469.617 0 2.615-.825 3.086-.825.573 0 .675.309.984.442.291.125.651.066.911.279.992.805 1.616 1.982 1.616 2.469 0 .365-.3.601-1.821.601-1.324 0-1.763.381-1.763.752 0 .528.234 1.088.234 1.688 0 .603-.828 1.543-1.543 1.763-.659.208-1.189-.144-1.881.176-.691.324-.617.735-1.145 1.133-.531.397-.801.357-1.059.617-.411.41-.254 1.168-1.352 1.983-.89.662-1.621.927-2.219.927-1.349 0-2.023-.242-2.587-.646-.425-.311-.94-.941-1.485-1.234-.542-.297-1.85-.399-1.909-.309-.056.088.575 1.279.354 1.543-.162.191-1.396-.133-1.866-.221-.472-.09-1.338-.146-1.706.162-.366.307-.191.989-.572 1.44-.305.359-.855.558-1.411.558-3.733 0-3.101-2.295-6.453-2.295-3.893 0-3.606 2.985-9.378 2.985-5.771 0-5.483-2.985-9.377-2.985-3.351 0-2.719 2.295-6.452 2.295-.555 0-1.105-.199-1.41-.558-.384-.451-.205-1.133-.574-1.44-.367-.308-1.232-.252-1.704-.162-.469.088-1.705.412-1.866.221-.222-.264.411-1.455.353-1.543-.059-.09-1.367.012-1.911.309-.543.293-1.059.923-1.483 1.234-.564.404-1.239.646-2.588.646-.597 0-1.328-.265-2.218-.927-1.097-.815-.94-1.573-1.352-1.983-.258-.26-.528-.22-1.057-.617-.529-.398-.456-.809-1.148-1.133-.689-.32-1.219.032-1.881-.176-.713-.22-1.542-1.16-1.542-1.763 0-.6.234-1.16.234-1.688 0-.371-.438-.752-1.763-.752-1.521 0-1.82-.236-1.82-.601 0-.487.623-1.664 1.615-2.469.261-.213.62-.154.911-.279.308-.133.412-.442.984-.442.47 0 2.469.825 3.086.825.618 0 1.043-.635 1.043-1.469 0-1.061-1.498-.737-1.808-1.207-.178-.274-.117-.778-.058-1.102a59.56 59.56 0 0 1-4.746.205c-1.636 0-2.666-.396-3.572-1.248-.916-.861-.734-1.736-1.336-2.426-.603-.691-1.145-.585-1.734-.998-.752-.527-1.543-1.693-3.057-2.277-1.898-.738-3.636-.635-5.465.014.484-1.235 2.717-1.526 3.055-1.647.338-.117 1.265-.849 1.779-1.146a3.783 3.783 0 0 1 1.837-.485c1.307 0 2.336 1.311 3.35 1.311.797 0 1.513-.94 1.513-2.102 0-.941-.435-1.861-1.102-2.338-.862-.615-1.353-.47-2.218-.705-.729-.199-1.559-.603-4.982-.603-2.026 0-4.064.529-4.781.951-1.04.609-1.553 1.529-2.449 1.529-1.479 0-3.185-1.695-4.252-1.695-1.034 0-1.379.494-1.419 1.496-.452-.84-.116-3.611-.551-3.857-.198-.116-.893-.151-1.724-.217-.843-.065-1.562-.522-1.773-.961-.187-.387.205-1.703.108-2.006-.118-.367-1.273-.705-1.763-1.283-.382-.455-.294-.764-.568-1.129-.158-.207-.961-1.105-1.195-1.449-.168-.244-.158-.586 0-.725.129-.113.451-.068.745.117.293.186 1.537.963 1.861 1.129.322.164.842.096 1.371.233.53.138.696.461 2.509.461 2.652 0 3.193-.914 3.193-1.725 0-1.459-.631-2.037-7.152-2.037-3.134 0-3.527.598-6.613.598-1.45 0-1.772-.754-2.302-.911-.335-.099-1.108.018-1.607-.168-.499-.187-1.635-1.593-2.008-2.126 1.068.755 1.773.98 2.499.98 1.088 0 2.361-.305 2.546-.598.086-.134.008-.865-.567-1.459-.512-.529-1.528-.716-1.804-.98-.234-.225-.156-.567-.49-.979-.331-.41-1.41-.902-1.919-1.627-.557-.791-1.293-2.664-1.371-3.937.253 1.148 2.637 2.664 4.172 2.664.98 0 2.155-1.508 2.899-1.764.375-.129 1.294-.254 1.608-.451.624-.389 1.33-1.307 1.273-1.51-.039-.134-1.861-.41-2.213-.445-.353-.041-2.469-.102-2.787-.543-.615-.85-.148-1.732-.236-2.039-.088-.311-.838-.842-.94-1.811-1.373 0-2.543-1.375-2.543-2.804 0-.949.556-1.614 1.529-1.897-.69-1.441 1.264-1.191 1.469-1.867-.661-.133-1.454-.617-2.057-.933-.619-.331-1.397-.36-1.861-.334.646-.842 2.272-.471 3.057-.549.936-.094 1.216-.524 1.293-.981.127-.765-.088-1.219-1.373-1.724A5.607 5.607 0 0 1 .95 30.576c0-1.684.119-4.391.119-5.289 0-.901-.706-2.469-.706-3.588 0-1.116.508-2.584 1.293-3.252-.155 3.51.361 5.193 1.998 6.328.572.4 1.066.209 1.156-.508.059-.471.04-1.861 0-2.412-.04-.547-.509-1.313-.254-2.27.019.823 1.04 1.227 1.41 1.782.431.646.941 3.666 2.527 6.584 1.587 2.918 4.487 5.213 4.606 5.113.117-.098-1.137-2.879-1.274-3.369-.138-.49.037-1.451-.275-2.274-.313-.824-1.135-.646-2.606-3.293-.894-1.607-.763-2.466-1.116-3.193-.353-.723-1.234-1.059-1.725-1.527-.489-.469-1.273-2.332-1.273-2.762 0-.432.862-1.49.862-2.361 0-1.28-2.452-3.77-3.449-4.192-.179-.078-.231-.154-.136-.275.462-.596 1.321-.764 1.91-.383.371.24.511.482.558.94.022.212.12.23.206.078.179-.313.652-.459 1.185-.106.621.408.598 1.479.744 2.026.142.527.359.941.637.941.329 0 .529-.41.529-1.096 0-.295-.028-3.156.113-3.754.102-.427.886-1.338 1-1.545.169-.306.101-.595.294-.923.314-.539 1-1.135 1.631-1.705.308-.278.499-.631.499-1.219 0-.485-.205-1.721-.41-2.293.545.517 1.017 1.769 1.017 2.719 0 2.195-1.547 3.449-1.547 5.027 0 .725.361 1.135.695 1.135.603 0 1.112.767 1.112 1.949 0 .588-.117 1.103-.206 1.498-.236 1.064-.178 1.857-.036 2.314.125.405.625.569.837 1.348.141-.311.632-.867.89-.943-.213.949.262 1.519.337 1.75.074.218.03.732.397.732.241 0 .617-.264.808-.703.206-.471-.102-4.482.633-5.523 1.128-1.606 2.291-.84 3.218-2.102.571-.781.309-2.297.758-3.053.716-1.201 3.652-2.478 4.801-2.625-1.53 1.078-1.204 2.28-1.783 3.369-.508.959-1.821 2.039-2.88 4.086-.617 1.19-1.51 3.44-1.51 5.75 0 20.026 28.65 43.348 56.253 58.936.455.258.611.371.95.66.304.262.882 1.34 1.597 1.34.392 0 .942-.652.942-1.354 0-1.449-1.629-2.898-1.629-5.377 0-1.357.417-2.505 1.212-3.472a4.468 4.468 0 0 0-.198-1.817c-.338-1.06-3.689-3.556-4.482-6.554-.211-.793-.058-1.645-.264-2.661-.142-.697-1.043-4.083-1.161-5.16-.246-2.234.02-2.984.867-3.318.558-.223 1.514-.647 2.056-1.029.644-.451.929-.834 1.029-1.573.045-.324.162-2.72.206-3.011.25-1.67.668-2.032 1.94-2.469 1.706-.59 3.435-1.869 4.085-3.277.274-.592.398-2.057.398-4.807 0-3.232-1.074-2.088-1.074-5.981 0-.691.184-1.994.413-2.601.471-1.262 2.575-2.373 2.907-2.277.208.06.147 1.043-.044 1.293-.523.683-.778 1.646-.778 2.378 0 1.485 1.181 4.059 1.763 4.059.265 0 .371-.641.559-.955.279-.473.794-.867 1.147-.75.353.115.294 2.85.294 4.141 0 4.779 2.292 4.252 2.292 7.619 0 1.959-1.01 6.31-1.01 9.838 0 1.588 1.132 2.797 1.999 3.005-.159-2.412 1.306-4.728 1.843-4.537.107.041-.011 2.412-.011 2.737 0 2.418 1.351 3.859 1.351 5.855 0 1.346-1.203 2.666-1.714 3.52-.34.568-.029 1.136-1.037 2.183-.847.877-1.768.787-1.979.932-.335.223-.481.685-.863.812-.109.038-.414.073-.695.073-1.305 0-2.869-.916-2.47-1.748.077.451.39.662.721.662.795 0 1.998-1.084 1.998-2.602 0-.97-.602-2.32-.822-2.879-.22-.56-.72-1.927-.72-2.468-.823.648-1.159 1.351-1.353 4.009-.045.602-.162.854-.263.868-.242.033-1.882-1.18-1.882-3.823 0-4.025 2.205-5.14 2.205-10.033 0-.986-.045-1.822-.485-2.543-.32 1.498-1.47 3.557-1.91 3.701-.309.106-1.382-.484-2.087-.322-.235.053-.65.83-1.102 2.853-.354 1.573-.089 2.821-.177 3.026-.089.203-.954.66-.999.808-.113.377.693 6.563 2.484 9.081.47.66 2.085 2.236 2.745 2.835.486.442 1.385.334 2.216.715.468.217 1.018.578 1.379.991 1.65 1.169 2.529 2.697 2.529 4.673 0 2.479-1.627 3.928-1.627 5.377 0 .702.545 1.354.94 1.354.716 0 1.294-1.078 1.596-1.34.34-.289.497-.402.95-.66 27.604-15.588 56.254-38.91 56.254-58.936 0-2.31-.894-4.56-1.511-5.75-1.057-2.047-2.369-3.127-2.879-4.086-.579-1.089-.255-2.291-1.784-3.369 1.151.147 4.086 1.424 4.801 2.625.451.756.188 2.272.759 3.053.927 1.262 2.091.496 3.22 2.102.733 1.041.426 5.052.631 5.523.192.439.567.703.809.703.366 0 .322-.514.395-.732.078-.231.551-.801.339-1.75.258.076.75.632.888.943.213-.779.712-.943.839-1.348.141-.457.198-1.25-.038-2.314-.089-.395-.205-.91-.205-1.498 0-1.182.509-1.949 1.111-1.949.335 0 .695-.41.695-1.135 0-1.578-1.547-2.832-1.547-5.027 0-.95.474-2.202 1.019-2.719-.206.572-.409 1.808-.409 2.293 0 .588.188.941.497 1.219.631.57 1.317 1.166 1.633 1.705.191.328.125.617.294.923.113.207.894 1.118.998 1.545.143.598.111 3.459.111 3.754 0 .686.204 1.096.53 1.096.28 0 .496-.414.638-.941.147-.547.123-1.618.743-2.026.535-.353 1.007-.207 1.187.106.087.152.183.134.205-.078.044-.458.188-.7.558-.94.589-.381 1.449-.213 1.911.383.093.121.042.197-.136.275-.999.422-3.449 2.912-3.449 4.192 0 .871.861 1.929.861 2.361 0 .43-.783 2.293-1.273 2.762-.491.468-1.372.804-1.725 1.527-.352.727-.222 1.586-1.115 3.193-1.471 2.647-2.293 2.469-2.607 3.293-.313.823-.137 1.784-.275 2.274-.137.49-1.389 3.271-1.274 3.369.119.1 3.018-2.195 4.605-5.113 1.586-2.918 2.097-5.938 2.527-6.584.373-.555 1.392-.959 1.411-1.782.255.957-.215 1.723-.254 2.27-.039.551-.061 1.941 0 2.412.089.717.584.908 1.156.508 1.639-1.135 2.153-2.818 1.998-6.328.784.668 1.292 2.136 1.292 3.252 0 1.119-.704 2.687-.704 3.588 0 .898.117 3.605.117 5.289a5.603 5.603 0 0 1-3.585 5.211c-1.283.505-1.5.959-1.369 1.724z" fill="#D8232A"/></g></svg>